<mxfile host="Electron" modified="2024-01-08T09:37:28.537Z" agent="Mozilla/5.0 (Windows NT 10.0; Win64; x64) AppleWebKit/537.36 (KHTML, like Gecko) draw.io/22.1.2 Chrome/114.0.5735.289 Electron/25.9.4 Safari/537.36" etag="NHJQ2EfS4shglmInMznz" version="22.1.2" type="device">
  <diagram name="Seite-1" id="Lo4qNJfkyq7A0vSaPoNX">
    <mxGraphModel dx="3343" dy="105" grid="1" gridSize="10" guides="1" tooltips="1" connect="1" arrows="1" fold="1" page="1" pageScale="1" pageWidth="827" pageHeight="1169" math="0" shadow="0">
      <root>
        <mxCell id="0" />
        <mxCell id="1" parent="0" />
        <mxCell id="Tk_EQ-81ttlezGoQ4oy1-1" style="edgeStyle=orthogonalEdgeStyle;rounded=0;orthogonalLoop=1;jettySize=auto;html=1;entryX=0;entryY=0.5;entryDx=0;entryDy=0;" edge="1" parent="1" source="Tk_EQ-81ttlezGoQ4oy1-3" target="Tk_EQ-81ttlezGoQ4oy1-8">
          <mxGeometry relative="1" as="geometry" />
        </mxCell>
        <mxCell id="Tk_EQ-81ttlezGoQ4oy1-2" style="edgeStyle=orthogonalEdgeStyle;rounded=0;orthogonalLoop=1;jettySize=auto;html=1;entryX=0;entryY=0.5;entryDx=0;entryDy=0;" edge="1" parent="1" source="Tk_EQ-81ttlezGoQ4oy1-3" target="Tk_EQ-81ttlezGoQ4oy1-7">
          <mxGeometry relative="1" as="geometry" />
        </mxCell>
        <mxCell id="Tk_EQ-81ttlezGoQ4oy1-3" value="Willkommen, was möchten sie tun?" style="rounded=1;whiteSpace=wrap;html=1;fillColor=#fff2cc;strokeColor=#d6b656;" vertex="1" parent="1">
          <mxGeometry x="-1297.5" y="1540" width="120" height="60" as="geometry" />
        </mxCell>
        <mxCell id="Tk_EQ-81ttlezGoQ4oy1-4" style="edgeStyle=orthogonalEdgeStyle;rounded=0;orthogonalLoop=1;jettySize=auto;html=1;entryX=0;entryY=0.5;entryDx=0;entryDy=0;" edge="1" parent="1" source="Tk_EQ-81ttlezGoQ4oy1-7" target="Tk_EQ-81ttlezGoQ4oy1-14">
          <mxGeometry relative="1" as="geometry" />
        </mxCell>
        <mxCell id="Tk_EQ-81ttlezGoQ4oy1-5" style="edgeStyle=orthogonalEdgeStyle;rounded=0;orthogonalLoop=1;jettySize=auto;html=1;entryX=0;entryY=0.5;entryDx=0;entryDy=0;" edge="1" parent="1" source="Tk_EQ-81ttlezGoQ4oy1-7" target="Tk_EQ-81ttlezGoQ4oy1-15">
          <mxGeometry relative="1" as="geometry" />
        </mxCell>
        <mxCell id="Tk_EQ-81ttlezGoQ4oy1-6" style="edgeStyle=orthogonalEdgeStyle;rounded=0;orthogonalLoop=1;jettySize=auto;html=1;entryX=0;entryY=0.5;entryDx=0;entryDy=0;" edge="1" parent="1" source="Tk_EQ-81ttlezGoQ4oy1-7" target="Tk_EQ-81ttlezGoQ4oy1-13">
          <mxGeometry relative="1" as="geometry" />
        </mxCell>
        <mxCell id="Tk_EQ-81ttlezGoQ4oy1-7" value="1. Neue Bestellung aufgeben&lt;br&gt;&quot;Was möchte Sie bestellen?&quot;" style="rounded=1;whiteSpace=wrap;html=1;fillColor=#fff2cc;strokeColor=#d6b656;" vertex="1" parent="1">
          <mxGeometry x="-1037.5" y="1400" width="120" height="60" as="geometry" />
        </mxCell>
        <mxCell id="Tk_EQ-81ttlezGoQ4oy1-8" value="3. Prg beenden" style="rounded=1;whiteSpace=wrap;html=1;fillColor=#fff2cc;strokeColor=#d6b656;" vertex="1" parent="1">
          <mxGeometry x="-1037.5" y="1650" width="120" height="60" as="geometry" />
        </mxCell>
        <mxCell id="Tk_EQ-81ttlezGoQ4oy1-9" style="edgeStyle=orthogonalEdgeStyle;rounded=0;orthogonalLoop=1;jettySize=auto;html=1;entryX=0.5;entryY=0;entryDx=0;entryDy=0;" edge="1" parent="1" source="Tk_EQ-81ttlezGoQ4oy1-10" target="Tk_EQ-81ttlezGoQ4oy1-23">
          <mxGeometry relative="1" as="geometry" />
        </mxCell>
        <mxCell id="Tk_EQ-81ttlezGoQ4oy1-10" value="1. Bestellung abschließen" style="rounded=1;whiteSpace=wrap;html=1;fillColor=#fff2cc;strokeColor=#d6b656;" vertex="1" parent="1">
          <mxGeometry x="-115" y="1730" width="120" height="60" as="geometry" />
        </mxCell>
        <mxCell id="Tk_EQ-81ttlezGoQ4oy1-11" style="edgeStyle=orthogonalEdgeStyle;rounded=0;orthogonalLoop=1;jettySize=auto;html=1;entryX=0;entryY=0.5;entryDx=0;entryDy=0;" edge="1" parent="1" source="Tk_EQ-81ttlezGoQ4oy1-12" target="Tk_EQ-81ttlezGoQ4oy1-7">
          <mxGeometry relative="1" as="geometry" />
        </mxCell>
        <mxCell id="Tk_EQ-81ttlezGoQ4oy1-12" value="Speisekarte" style="shape=cylinder3;whiteSpace=wrap;html=1;boundedLbl=1;backgroundOutline=1;size=15;fillColor=#d5e8d4;strokeColor=#82b366;" vertex="1" parent="1">
          <mxGeometry x="-1282.5" y="1390" width="60" height="80" as="geometry" />
        </mxCell>
        <mxCell id="Tk_EQ-81ttlezGoQ4oy1-13" value="2. Pizza" style="rounded=1;whiteSpace=wrap;html=1;fillColor=#fff2cc;strokeColor=#d6b656;" vertex="1" parent="1">
          <mxGeometry x="-527.5" y="1440" width="120" height="60" as="geometry" />
        </mxCell>
        <mxCell id="Tk_EQ-81ttlezGoQ4oy1-14" value="3. Pasta" style="rounded=1;whiteSpace=wrap;html=1;fillColor=#fff2cc;strokeColor=#d6b656;" vertex="1" parent="1">
          <mxGeometry x="-527.5" y="1540" width="120" height="60" as="geometry" />
        </mxCell>
        <mxCell id="Tk_EQ-81ttlezGoQ4oy1-15" value="4. Nachspeisen" style="rounded=1;whiteSpace=wrap;html=1;fillColor=#fff2cc;strokeColor=#d6b656;" vertex="1" parent="1">
          <mxGeometry x="-527.5" y="1640" width="120" height="60" as="geometry" />
        </mxCell>
        <mxCell id="Tk_EQ-81ttlezGoQ4oy1-16" style="edgeStyle=orthogonalEdgeStyle;rounded=0;orthogonalLoop=1;jettySize=auto;html=1;" edge="1" parent="1" source="Tk_EQ-81ttlezGoQ4oy1-17" target="Tk_EQ-81ttlezGoQ4oy1-22">
          <mxGeometry relative="1" as="geometry" />
        </mxCell>
        <mxCell id="Tk_EQ-81ttlezGoQ4oy1-17" value="Datenbank&amp;nbsp;" style="shape=cylinder3;whiteSpace=wrap;html=1;boundedLbl=1;backgroundOutline=1;size=15;fillColor=#d5e8d4;strokeColor=#82b366;" vertex="1" parent="1">
          <mxGeometry x="-317.5" y="1512.5" width="60" height="80" as="geometry" />
        </mxCell>
        <mxCell id="Tk_EQ-81ttlezGoQ4oy1-18" style="edgeStyle=orthogonalEdgeStyle;rounded=0;orthogonalLoop=1;jettySize=auto;html=1;entryX=0.5;entryY=0;entryDx=0;entryDy=0;" edge="1" parent="1" source="Tk_EQ-81ttlezGoQ4oy1-22" target="Tk_EQ-81ttlezGoQ4oy1-10">
          <mxGeometry relative="1" as="geometry" />
        </mxCell>
        <mxCell id="Tk_EQ-81ttlezGoQ4oy1-19" value="nein" style="edgeLabel;html=1;align=center;verticalAlign=middle;resizable=0;points=[];" vertex="1" connectable="0" parent="Tk_EQ-81ttlezGoQ4oy1-18">
          <mxGeometry x="-0.2681" y="-2" relative="1" as="geometry">
            <mxPoint as="offset" />
          </mxGeometry>
        </mxCell>
        <mxCell id="Tk_EQ-81ttlezGoQ4oy1-20" style="edgeStyle=orthogonalEdgeStyle;rounded=0;orthogonalLoop=1;jettySize=auto;html=1;entryX=0.5;entryY=0;entryDx=0;entryDy=0;" edge="1" parent="1" source="Tk_EQ-81ttlezGoQ4oy1-22" target="Tk_EQ-81ttlezGoQ4oy1-7">
          <mxGeometry relative="1" as="geometry">
            <Array as="points">
              <mxPoint x="-54.5" y="1380" />
              <mxPoint x="-977.5" y="1380" />
            </Array>
          </mxGeometry>
        </mxCell>
        <mxCell id="Tk_EQ-81ttlezGoQ4oy1-21" value="ja" style="edgeLabel;html=1;align=center;verticalAlign=middle;resizable=0;points=[];" vertex="1" connectable="0" parent="Tk_EQ-81ttlezGoQ4oy1-20">
          <mxGeometry x="-0.8867" relative="1" as="geometry">
            <mxPoint as="offset" />
          </mxGeometry>
        </mxCell>
        <mxCell id="Tk_EQ-81ttlezGoQ4oy1-22" value="Warenkorb anzeigen.&lt;br&gt;+&lt;br&gt;Darf es noch etwas sein?" style="rhombus;whiteSpace=wrap;html=1;" vertex="1" parent="1">
          <mxGeometry x="-137.5" y="1470" width="165" height="165" as="geometry" />
        </mxCell>
        <mxCell id="Tk_EQ-81ttlezGoQ4oy1-23" value="" style="ellipse;html=1;shape=endState;fillColor=#000000;strokeColor=#ff0000;" vertex="1" parent="1">
          <mxGeometry x="-70" y="1920" width="30" height="30" as="geometry" />
        </mxCell>
        <mxCell id="Tk_EQ-81ttlezGoQ4oy1-24" style="edgeStyle=orthogonalEdgeStyle;rounded=0;orthogonalLoop=1;jettySize=auto;html=1;entryX=0;entryY=0;entryDx=0;entryDy=52.5;entryPerimeter=0;" edge="1" parent="1" source="Tk_EQ-81ttlezGoQ4oy1-13" target="Tk_EQ-81ttlezGoQ4oy1-17">
          <mxGeometry relative="1" as="geometry" />
        </mxCell>
        <mxCell id="Tk_EQ-81ttlezGoQ4oy1-25" style="edgeStyle=orthogonalEdgeStyle;rounded=0;orthogonalLoop=1;jettySize=auto;html=1;entryX=0;entryY=0;entryDx=0;entryDy=52.5;entryPerimeter=0;" edge="1" parent="1" source="Tk_EQ-81ttlezGoQ4oy1-14" target="Tk_EQ-81ttlezGoQ4oy1-17">
          <mxGeometry relative="1" as="geometry" />
        </mxCell>
        <mxCell id="Tk_EQ-81ttlezGoQ4oy1-26" style="edgeStyle=orthogonalEdgeStyle;rounded=0;orthogonalLoop=1;jettySize=auto;html=1;entryX=0;entryY=0;entryDx=0;entryDy=52.5;entryPerimeter=0;" edge="1" parent="1" source="Tk_EQ-81ttlezGoQ4oy1-15" target="Tk_EQ-81ttlezGoQ4oy1-17">
          <mxGeometry relative="1" as="geometry" />
        </mxCell>
        <mxCell id="Tk_EQ-81ttlezGoQ4oy1-27" value="&lt;span style=&quot;font-size: 26px;&quot;&gt;Aktivitätsdiagramm Nutzereingabe&lt;/span&gt;" style="text;html=1;strokeColor=none;fillColor=none;align=center;verticalAlign=middle;whiteSpace=wrap;rounded=0;fontSize=11;fontFamily=Helvetica;fontColor=default;fontStyle=5" vertex="1" parent="1">
          <mxGeometry x="-940" y="1210" width="510" height="60" as="geometry" />
        </mxCell>
      </root>
    </mxGraphModel>
  </diagram>
</mxfile>
